# xmcd
#
# Track frame offsets:
#	150
#	38547
#	67487
#	105517
#	142752
#	161990
#	177650
#
# Disc length: 2738
#
# Revision: 1
# Processed by: cddbd v1.5.1PL0 Copyright (c) Steve Scherf et al.
# Submitted via: CDex 1.50beta9
# Normalized: r0:TDELIM( - )
#
DISCID=610ab007
DTITLE=Nature Melodies - Songbirds Melodies
DYEAR=1900
DGENRE=New Age
TTITLE0=Barber - Adagio for Strings
TTITLE1=Debussy - Clair de Lune
TTITLE2=Grieg - Dawn from Peer Gynt
TTITLE3=Mozart - Adagio from Clarinet Concerto
TTITLE4=Satie - Lent et Douloreux from Trois Gymnopedies
TTITLE5=Schubert - Ave Maria
TTITLE6=Vaughan - Williams Fantasia On Greensleeves
EXTD=
EXTT0=
EXTT1=
EXTT2=
EXTT3=
EXTT4=
EXTT5=
EXTT6=
PLAYORDER=
